<svg width="64" height="64" viewBox="0 0 64 64" fill="none" xmlns="http://www.w3.org/2000/svg">
<g clip-path="url(#clip0)">
<rect width="64" height="64" fill="#FF1A40"/>
<path d="M18.992 46.216H26.16C27.568 46.216 28.5707 45.9387 29.168 45.384C29.808 44.7867 30.128 43.8267 30.128 42.504V38.792C30.128 37.4693 29.808 36.5307 29.168 35.976C28.528 35.4213 27.4827 35.144 26.032 35.144H18.992C18.5227 35.144 18.288 35.3787 18.288 35.848V45.512C18.288 45.9813 18.5227 46.216 18.992 46.216ZM18.992 28.552H25.52C26.8853 28.552 27.888 28.2747 28.528 27.72C29.168 27.1227 29.488 26.1627 29.488 24.84V22.344C29.488 21.0213 29.168 20.0827 28.528 19.528C27.9307 18.9307 26.9493 18.632 25.584 18.632H18.992C18.5227 18.632 18.288 18.8667 18.288 19.336V27.848C18.288 28.3173 18.5227 28.552 18.992 28.552ZM10.16 51.656V13.192C10.16 12.296 10.608 11.848 11.504 11.848H26.864C30.2347 11.848 32.8373 12.744 34.672 14.536C36.5067 16.328 37.424 18.888 37.424 22.216V24.84C37.424 28.4667 35.7387 30.8133 32.368 31.88C34.0747 32.136 35.44 32.84 36.464 33.992C37.488 35.1013 38 36.7013 38 38.792V42.632C38 45.96 37.0827 48.52 35.248 50.312C33.4133 52.104 30.832 53 27.504 53H11.504C10.608 53 10.16 52.552 10.16 51.656ZM44.7 23.112V13.192C44.7 12.296 45.148 11.848 46.044 11.848H52.124C53.02 11.848 53.468 12.296 53.468 13.192V23.112C53.468 24.8187 53.3613 26.7387 53.148 28.872C52.9773 30.9627 52.8493 32.52 52.764 33.544C52.6787 34.568 52.5933 35.4 52.508 36.04C52.4227 36.68 52.38 37.0213 52.38 37.064C52.2093 37.96 51.7187 38.408 50.908 38.408H47.26C46.4493 38.408 45.9587 37.96 45.788 37.064C45.788 37.0213 45.7453 36.68 45.66 36.04C45.5747 35.4 45.468 34.568 45.34 33.544C45.2547 32.52 45.1693 31.4107 45.084 30.216C44.828 26.7173 44.7 24.3493 44.7 23.112ZM53.276 43.784V51.656C53.276 52.552 52.8493 53 51.996 53H46.364C45.5107 53 45.084 52.5307 45.084 51.592V43.848C45.084 42.9947 45.5107 42.568 46.364 42.568H51.996C52.8493 42.568 53.276 42.9733 53.276 43.784Z" fill="white"/>
</g>
<defs>
<clipPath id="clip0">
<rect width="64" height="64" fill="white"/>
</clipPath>
</defs>
</svg>
